# AST/ASF file generated using VICON BodyLanguage
# -----------------------------------------------
:version 1.10
:name VICON
:units
  mass 1.0
  length 0.45
  angle deg
:documentation
   .ast/.asf automatically generated from VICON data using
   VICON BodyBuilder and BodyLanguage model FoxedUp or BRILLIANT.MOD
:root
   order TX TY TZ RX RY RZ
   axis XYZ
   position 0 0 0  
   orientation 0 0 0 
:bonedata
  begin
     id 1 
     name lhipjoint
     direction 0.612567 -0.751349 0.245431 
     length 2.42285 
     axis 0 0 0  XYZ
  end
  begin
     id 2 
     name lfemur
     direction 0.34202 -0.939693 0  
     length 7.11304  
     axis 0 0 20  XYZ
    dof rx ry rz
    limits (-160.0 20.0)
           (-70.0 70.0)
           (-60.0 70.0)
  end
  begin
     id 3 
     name ltibia
     direction 0.34202 -0.939693 0   
     length 7.84529   
     axis 0 0 20   XYZ
    dof rx
    limits (-10.0 170.0)
  end
  begin
     id 4 
     name lfoot
     direction 0.0779239 -0.214094 0.9737   
     length 1.97176   
     axis -90 7.62852e-016 20   XYZ
    dof rx rz
    limits (-45.0 90.0)
           (-70.0 20.0)
  end
  begin
     id 5 
     name ltoes
     direction 1.53565e-011 -4.21709e-011 1   
     length 0.993197   
     axis -90 7.62852e-016 20   XYZ
    dof rx
    limits (-90.0 20.0)
  end
  begin
     id 6 
     name rhipjoint
     direction -0.665722 -0.709315 0.231701   
     length 2.56642  
     axis 0 0 0  XYZ 
  end
  begin
     id 7 
     name rfemur
     direction -0.34202 -0.939693 0   
     length 7.32108   
     axis 0 0 -20   XYZ
    dof rx ry rz
    limits (-160.0 20.0)
           (-70.0 70.0)
           (-70.0 60.0)
  end
  begin
     id 8 
     name rtibia
     direction -0.34202 -0.939693 0   
     length 7.81254   
     axis 0 0 -20   XYZ
    dof rx
    limits (-10.0 170.0)
 end
 begin
     id 9 
     name rfoot
     direction -0.0832806 -0.228812 0.969902   
     length 2.08278  
     axis -90 -7.62852e-016 -20   XYZ
    dof rx rz
    limits (-45.0 90.0)
           (-20.0 70.0)
  end
  begin
     id 10 
     name rtoes
     direction -1.53589e-011 -4.22086e-011 1   
     length 1.04609   
     axis -90 -7.62852e-016 -20   XYZ
    dof rx
    limits (-90.0 20.0)
  end
  begin
     id 11 
     name lowerback
     direction -0.00506013 0.988403 -0.151766   
     length 2.01978   
     axis 0 0 0   XYZ
    dof rx ry rz
    limits (-20.0 45.0)
           (-30.0 30.0)
           (-30.0 30.0)
  end
  begin
     id 12 
     name upperback
     direction -0.00836389 0.99968 0.0238859   
     length 2.01276   
     axis 0 0 0   XYZ
    dof rx ry rz
    limits (-20.0 45.0)
           (-30.0 30.0)
           (-30.0 30.0)
  end
  begin
     id 13 
     name thorax
     direction -0.00684136 0.995386 0.0957043   
     length 2.07303   
     axis 0 0 0   XYZ
    dof rx ry rz
    limits (-20.0 45.0)
           (-30.0 30.0)
           (-30.0 30.0)
  end
  begin
     id 14 
     name lowerneck
     direction -0.0161045 0.999661 0.0204485   
     length 1.91243   
     axis 0 0 0   XYZ
    dof rx ry rz
    limits (-20.0 45.0)
           (-30.0 30.0)
           (-30.0 30.0)
  end
  begin
     id 15 
     name upperneck
     direction 0.0553583 0.990946 -0.122319   
     length 1.91574   
     axis 0 0 0   XYZ
    dof rx ry rz
    limits (-20.0 45.0)
           (-30.0 30.0)
           (-30.0 30.0)
  end
  begin
     id 16
     name head
     direction 0.0180273 0.998839 -0.0446756  
     length 1.92693  
     axis 0 0 0   XYZ
    dof rx ry rz
    limits (-20.0 45.0)
           (-30.0 30.0)
           (-30.0 30.0)
  end
  begin
     id 17 
     name lclavicle
     direction 0.945646 0.319323 -0.0615358  
     length 4.0076  
     axis 0 0 0   XYZ
    dof ry rz
    limits (-20.0 10.0)
           (0.0 20.0)
  end
  begin
     id 18 
     name lhumerus
     direction 1 -4.48967e-011 -2.79996e-027   
     length 5.64147   
     axis 180 -30 -90   XYZ
    dof rx ry rz
    limits (-60.0 90.0)
           (-90.0 90.0)
           (-90.0 90.0)
  end
  begin
     id 19
     name lradius
     direction 1 -4.48976e-011 -9.5122e-027   
     length 2.86444   
     axis 180 -30 -90   XYZ
    dof rx
    limits (-10.0 170.0)
  end
  begin
     id 20
     name lwrist
     direction 1 -4.48983e-011 -1.24047e-026   
     length 1.43222   
     axis 9.05591e-015 90 90   XYZ
    dof ry
    limits (-180.0 0.0)
 end
  begin
     id 21 
     name lhand
     direction 1 -4.4892e-011 -2.48094e-026   
     length 0.722123   
     axis 1.58305e-014 90 90   XYZ
    dof rx rz
    limits (-90.0 90.0)
           (-45.0 45.0)
  end
  begin
     id 22 
     name lfingers
     direction 1 -4.48895e-011 -4.96187e-026   
     length 0.582194   
     axis 3.1661e-014 90 90   XYZ
    dof rx
    limits (0.0 90.0)
  end
  begin
     id 23
     name lthumb
     direction 0.707107 -6.34961e-011 0.707107   
     length 0.835918   
     axis -90 45 2.85299e-015   XYZ
    dof rx rz
    limits (-45.0 45.0)
           (-45.0 45.0)
  end
  begin
     id 24 
     name rclavicle
     direction -0.932635 0.324218 -0.15835   
     length 3.65819  
     axis 0 0 0   XYZ 
    dof ry rz
    limits (-10.0 20.0)
           (-20.0 0.0)
  end
  begin
     id 25 
     name rhumerus
     direction -1 -4.48965e-011 -4.02296e-027  
     length 5.44729   
     axis 180 30 90   XYZ
    dof rx ry rz
    limits (-90.0 60.0)
           (-90.0 90.0)
           (-90.0 90.0)
  end
  begin
     id 26 
     name rradius
     direction -1 -4.48957e-011 -8.81087e-027   
     length 3.08821   
     axis 180 30 90   XYZ
    dof rx
    limits (-10.0 170.0)
  end
  begin
     id 27 
     name rwrist
     direction -1 -4.49015e-011 -1.24047e-026   
     length 1.5441   
     axis 9.05591e-015 -90 -90   XYZ
    dof ry
    limits (-180.0 0.0)
  end
  begin
     id 28
     name rhand
     direction -1 -4.4891e-011 -2.48094e-026   
     length 0.821049   
     axis 1.58305e-014 -90 -90   XYZ
    dof rx rz
    limits (-90.0 90.0)
           (-45.0 45.0)
  end
  begin
     id 29
     name rfingers
     direction -1 -4.48985e-011 -4.96187e-026   
     length 0.661951   
     axis 3.1661e-014 -90 -90   XYZ
    dof rx
    limits (0.0 90.0)
  end
  begin
     id 30
     name rthumb
     direction -0.707107 -6.34906e-011 0.707107   
     length 0.950433   
     axis -90 -45 -2.85299e-015   XYZ
    dof rx rz
    limits (-45.0 45.0)
           (-45.0 45.0)
  end
:hierarchy
  begin
    root lhipjoint rhipjoint lowerback
    lhipjoint lfemur
    lfemur ltibia
    ltibia lfoot
    lfoot ltoes
    rhipjoint rfemur
    rfemur rtibia
    rtibia rfoot
    rfoot rtoes
    lowerback upperback
    upperback thorax
    thorax lowerneck lclavicle rclavicle
    lowerneck upperneck
    upperneck head
    lclavicle lhumerus
    lhumerus lradius
    lradius lwrist
    lwrist lhand lthumb
    lhand lfingers
    rclavicle rhumerus
    rhumerus rradius
    rradius rwrist
    rwrist rhand rthumb
    rhand rfingers
  end

#!OML:ASF F:\VICON\USERDATA\INSTALL\rory3\rory3.ASF
:FULLY-SPECIFIED
:DEGREES
3068
root 3.83007 17.4913 0.698545 544.796 70.674 548.115
lowerback 4.26122 2.61812 -1.97224
upperback -3.02304 3.28237 -5.83516
thorax -5.306 1.66628 -5.28865
lowerneck -1.36723 -5.95797 -8.01934
upperneck 3.07765 -8.10986 10.6202
head 1.89971 -3.94724 4.27671
rclavicle 5.66536e-014 3.81667e-014
rhumerus -24.7609 -9.58945 -62.5239
rradius 132.786
rwrist 7.16324
rhand -26.4236 12.7578
rfingers 7.12502
rthumb 0.136626 -17.2219
lclavicle 5.66536e-014 3.81667e-014
lhumerus -25.6304 2.19956 67.4173
lradius 132.886
lwrist 33.9032
lhand -35.601 -13.0407
lfingers 7.12502
lthumb -8.72474 16.759
rfemur 8.49518 -8.46352 24.6487
rtibia 12.2737
rfoot -27.5468 -15.0244
rtoes 0.723747
lfemur -5.22923 -7.75711 -10.9726
ltibia 20.5231
lfoot -10.7011 -14.6544
ltoes -1.60321
3069
root 3.8281 17.4964 0.679588 543.353 70.9836 546.66
lowerback 4.27379 2.54023 -2.40142
upperback -3.01757 3.15197 -5.80298
thorax -5.34202 1.61838 -5.00283
lowerneck -1.3143 -6.1608 -8.04731
upperneck 3.06174 -8.39451 10.9577
head 1.92941 -4.08207 4.37284
rclavicle 2.82274e-014 -4.77083e-014
rhumerus -25.2381 -8.94297 -63.0838
rradius 132.351
rwrist 9.07842
rhand -26.7299 13.4178
rfingers 7.12502
rthumb -0.159182 -16.5619
lclavicle 2.82274e-014 -4.77083e-014
lhumerus -26.5004 1.70813 67.6422
lradius 132.249
lwrist 32.4886
lhand -35.5232 -13.5567
lfingers 7.12502
lthumb -8.64974 16.2461
rfemur 8.45065 -8.39404 23.9631
rtibia 12.5535
rfoot -27.5255 -14.8264
rtoes 0.436939
lfemur -4.87992 -7.6478 -11.6343
ltibia 20.1937
lfoot -10.5476 -14.5286
ltoes -0.978855
3070
root 3.82326 17.4995 0.662839 543.126 71.1137 546.424
lowerback 4.29873 2.40359 -2.44702
upperback -3.03278 2.96167 -5.63678
thorax -5.39514 1.52445 -4.78692
lowerneck -1.3251 -6.34336 -8.05686
upperneck 3.06361 -8.64732 11.2068
head 1.968 -4.20079 4.43797
rclavicle 3.91606e-014 -6.36111e-015
rhumerus -25.7099 -8.29316 -63.6947
rradius 131.929
rwrist 10.8458
rhand -27.1278 14.0673
rfingers 7.12502
rthumb -0.543508 -15.9117
lclavicle 3.91606e-014 -6.36111e-015
lhumerus -27.4146 1.3472 67.8287
lradius 131.525
lwrist 30.4523
lhand -35.2535 -13.8429
lfingers 7.12502
lthumb -8.3894 15.9704
rfemur 8.36628 -8.31695 23.8024
rtibia 12.7436
rfoot -27.5383 -14.8323
rtoes 0.128923
lfemur -4.72187 -7.47709 -11.7863
ltibia 19.964
lfoot -10.3981 -14.566
ltoes -0.878883
3071
root 3.81705 17.5021 0.647958 543.183 71.2339 546.452
lowerback 4.30213 2.28835 -2.39275
upperback -3.04732 2.80754 -5.45633
thorax -5.42741 1.44475 -4.6136
lowerneck -1.33423 -6.53118 -7.96405
upperneck 3.01722 -8.90126 11.3145
head 1.98181 -4.32274 4.44427
rclavicle 7.27552e-014 1.59028e-015
rhumerus -26.2296 -7.70528 -64.2695
rradius 131.547
rwrist 12.3671
rhand -27.6708 14.7619
rfingers 7.12502
rthumb -1.06796 -15.2152
lclavicle 7.27552e-014 1.59028e-015
lhumerus -28.2179 0.946103 68.1066
lradius 130.795
lwrist 28.3345
lhand -34.8303 -14.3543
lfingers 7.12502
lthumb -7.98096 15.475
rfemur 8.32316 -8.1385 23.785
rtibia 12.7625
rfoot -27.5395 -14.9331
rtoes 0.0281031
lfemur -4.70003 -7.37592 -11.825
ltibia 19.9046
lfoot -10.3055 -14.5608
ltoes -0.673455
3072
root 3.80535 17.505 0.632115 544.385 71.5281 547.537
lowerback 4.17528 2.23807 -1.97916
upperback -3.11011 2.76671 -5.19293
thorax -5.41516 1.40702 -4.55896
lowerneck -1.25058 -6.71673 -7.95561
upperneck 2.88789 -9.15327 11.5576
head 1.96619 -4.44593 4.50946
rclavicle 4.17448e-014 -2.70347e-014
rhumerus -26.7685 -7.09987 -64.8248
rradius 131.195
rwrist 13.313
rhand -28.3172 15.2548
rfingers 7.12502
rthumb -1.69229 -14.7183
lclavicle 4.17448e-014 -2.70347e-014
lhumerus -28.9377 0.36836 68.4221
lradius 130.045
lwrist 26.3886
lhand -34.6411 -15.5043
lfingers 7.12502
lthumb -7.79834 14.3319
rfemur 8.13035 -7.86422 24.1207
rtibia 12.6608
rfoot -27.3423 -15.0729
rtoes -0.29374
lfemur -4.87075 -7.19066 -11.5004
ltibia 19.9739
lfoot -10.3671 -14.4951
ltoes -0.430297
3073
root 3.79348 17.5077 0.614818 545.368 71.853 548.445
lowerback 4.09288 2.18227 -1.62838
upperback -3.15889 2.7135 -4.9505
thorax -5.41669 1.3659 -4.49276
lowerneck -1.08579 -6.87485 -7.88019
upperneck 2.67678 -9.36494 11.7669
head 1.90498 -4.55314 4.55999
rclavicle 1.53064e-014 -4.45278e-014
rhumerus -27.3071 -6.4366 -65.4363
rradius 130.895
rwrist 13.4178
rhand -28.8284 15.4222
rfingers 7.12502
rthumb -2.18599 -14.5464
lclavicle 1.53064e-014 -4.45278e-014
lhumerus -29.6003 -0.178959 68.6932
lradius 129.367
lwrist 24.8518
lhand -34.5817 -16.2508
lfingers 7.12502
lthumb -7.74103 13.5875
rfemur 8.00516 -7.51014 24.3725
rtibia 12.536
rfoot -27.2284 -15.1833
rtoes -0.467585
lfemur -4.99465 -6.88832 -11.2678
ltibia 20.0727
lfoot -10.4669 -14.4576
ltoes -0.525917
